<svg width="520" height="620" viewBox="0 0 520 620" fill="none" xmlns="http://www.w3.org/2000/svg">
  <defs>
    <linearGradient id="g1" x1="130" y1="0" x2="420" y2="620" gradientUnits="userSpaceOnUse"><stop stop-color="#0CE0D2"/><stop offset="1" stop-color="#08666E"/></linearGradient>
    <linearGradient id="metal" x1="0" x2="1"><stop stop-color="#C8D4D8"/><stop offset=".5" stop-color="#F5FAFB"/><stop offset="1" stop-color="#9EAFB5"/></linearGradient>
    <filter id="shadow" x="0" y="0" width="520" height="620" filterUnits="userSpaceOnUse"><feDropShadow dx="0" dy="30" stdDeviation="35" flood-color="#0B3440" flood-opacity="0.24"/></filter>
  </defs>
  <g filter="url(#shadow)">
    <rect x="172" y="44" width="176" height="142" rx="42" fill="url(#g1)"/>
    <rect x="204" y="70" width="112" height="46" rx="18" fill="#123442"/>
    <circle cx="229" cy="146" r="18" fill="#123442"/><circle cx="291" cy="146" r="18" fill="#123442"/>
    <rect x="216" y="186" width="88" height="48" rx="14" fill="url(#metal)"/>
    <rect x="196" y="226" width="128" height="42" rx="18" fill="url(#metal)"/>
    <path d="M222 268h76l-20 74h-36l-20-74Z" fill="url(#metal)"/>
    <rect x="246" y="330" width="28" height="220" rx="14" fill="#133B49"/>
    <rect x="254" y="340" width="12" height="198" rx="6" fill="#06B8AE" opacity=".5"/>
    <path d="M260 550l-28 52h56l-28-52Z" fill="#133B49"/>
    <path d="M72 428c52-38 104-57 156-57m64 0c57 0 110 22 160 66" stroke="#04B8AD" stroke-width="5" stroke-linecap="round" stroke-dasharray="12 18" opacity=".7"/>
    <circle cx="72" cy="428" r="8" fill="#04B8AD"/><circle cx="452" cy="437" r="8" fill="#04B8AD"/>
  </g>
</svg>
