<svg width="620" height="150" viewBox="0 0 620 150" fill="none" xmlns="http://www.w3.org/2000/svg">
  <rect x="7" y="14" width="122" height="122" rx="30" fill="#04B8AD"/>
  <path d="M35 96V49h43c18 0 28 8 28 22 0 12-8 19-21 21l25 27H83L61 96H35Zm23-18h18c5 0 8-3 8-7s-3-7-8-7H58v14Z" fill="white"/>
  <path d="M157 116V34h60c31 0 49 15 49 40 0 18-10 31-28 37l34 5v0h-34l-31-31h-18v31h-32Zm32-55h27c10 0 16-5 16-14 0-8-6-13-16-13h-27v27Zm91 55V34h84v25h-52v13h47v23h-47v21h-32Zm99 0V34h32v57h48v25h-80Zm93 0V34h32v82h-32Zm47-41c0-25 21-43 51-43s51 18 51 43-21 43-51 43-51-18-51-43Zm32 0c0 11 8 19 19 19s19-8 19-19-8-19-19-19-19 8-19 19Z" fill="#102B35"/>
  <circle cx="571" cy="75" r="7" fill="#04B8AD"/>
</svg>
