<svg width="260" height="240" viewBox="0 0 260 240" fill="none" xmlns="http://www.w3.org/2000/svg"><defs><linearGradient id="a" x1="84" y1="26" x2="180" y2="190"><stop stop-color="#12DACE"/><stop offset="1" stop-color="#0B7680"/></linearGradient><linearGradient id="m" x1="0" x2="1"><stop stop-color="#D9E1E4"/><stop offset=".5" stop-color="#fff"/><stop offset="1" stop-color="#91A5AD"/></linearGradient></defs><rect x="83" y="32" width="94" height="78" rx="24" fill="url(#a)"/><rect x="103" y="51" width="54" height="22" rx="9" fill="#123442"/><circle cx="107" cy="91" r="9" fill="#123442"/><circle cx="153" cy="91" r="9" fill="#123442"/><rect x="105" y="110" width="50" height="30" rx="9" fill="url(#m)"/><rect x="113" y="140" width="34" height="25" rx="8" fill="url(#m)"/><path d="M115 165h13v50c0 5-3 9-7 9s-6-4-6-9v-50Zm18 0h13v50c0 5-3 9-7 9s-6-4-6-9v-50Z" fill="#123442"/><path d="M64 176c19-18 20-38 0-58M196 176c-19-18-20-38 0-58" stroke="#04B8AD" stroke-width="7" stroke-linecap="round" opacity=".65"/></svg>
