<svg width="260" height="240" viewBox="0 0 260 240" fill="none" xmlns="http://www.w3.org/2000/svg"><defs><linearGradient id="a" x1="85" y1="24" x2="176" y2="175"><stop stop-color="#10DBCE"/><stop offset="1" stop-color="#0B7680"/></linearGradient><linearGradient id="m" x1="0" x2="1"><stop stop-color="#DDE6E8"/><stop offset=".5" stop-color="#fff"/><stop offset="1" stop-color="#8FA2AA"/></linearGradient></defs><rect x="92" y="22" width="76" height="104" rx="30" fill="url(#a)"/><rect x="111" y="48" width="38" height="24" rx="10" fill="#123442"/><rect x="104" y="126" width="52" height="32" rx="10" fill="url(#m)"/><rect x="116" y="158" width="28" height="62" rx="14" fill="#123442"/><path d="M64 190c10 17 25 26 44 26 17 0 26-11 43-11 18 0 28 11 45 11" stroke="#04B8AD" stroke-width="7" stroke-linecap="round" opacity=".75"/><path d="M68 62c-20 24-20 53 0 86M192 62c20 24 20 53 0 86" stroke="#04B8AD" stroke-width="6" stroke-linecap="round" opacity=".5"/></svg>
