<svg width="260" height="240" viewBox="0 0 260 240" fill="none" xmlns="http://www.w3.org/2000/svg"><defs><linearGradient id="a" x1="75" y1="30" x2="180" y2="210"><stop stop-color="#13D6CB"/><stop offset="1" stop-color="#0B7C83"/></linearGradient><linearGradient id="m" x1="0" x2="1"><stop stop-color="#D7E0E2"/><stop offset=".5" stop-color="#fff"/><stop offset="1" stop-color="#9CADB3"/></linearGradient></defs><rect x="74" y="26" width="112" height="88" rx="26" fill="url(#a)"/><rect x="94" y="44" width="72" height="30" rx="12" fill="#123442"/><circle cx="107" cy="93" r="11" fill="#123442"/><circle cx="153" cy="93" r="11" fill="#123442"/><rect x="102" y="114" width="56" height="34" rx="11" fill="url(#m)"/><path d="M81 148h98l-16 26H97l-16-26Z" fill="url(#m)"/><path d="M98 174h64l26 40H72l26-40Z" fill="url(#m)"/><path d="M42 96c-18 22-18 48 0 70M218 96c18 22 18 48 0 70M22 77c-30 39-30 91 0 130M238 77c30 39 30 91 0 130" stroke="#04B8AD" stroke-width="7" stroke-linecap="round" opacity=".65"/></svg>
